<svg width="124" height="32" viewBox="0 0 124 32" fill="none" xmlns="http://www.w3.org/2000/svg">
<path d="M49.9336 11.1385L48.448 12.7385C47.4172 11.7231 46.3257 11.1385 44.8402 11.1385C42.2631 11.1385 40.3228 13.2 40.3228 16.0923C40.3228 18.9846 42.2631 21.0462 44.8402 21.0462C46.2348 21.0462 47.5688 20.4615 48.5389 19.4462L49.9336 21.0462C48.7208 22.4615 46.9927 23.2 44.9614 23.2C40.7169 23.2 37.958 20.1231 37.958 16.0923C37.958 11.9692 40.7169 8.89231 44.9614 8.89231C46.8715 8.86154 48.6905 9.69231 49.9336 11.1385Z" fill="white"/>
<path d="M66.5175 16.0923C66.5175 20.1231 63.4857 23.2 59.4231 23.2C55.2696 23.2 52.2378 20.1231 52.2378 16.0923C52.2378 11.9693 55.2696 8.89233 59.4231 8.89233C63.4857 8.89233 66.5175 11.9693 66.5175 16.0923ZM54.6329 16.0923C54.6329 18.9846 56.6642 21.0462 59.4231 21.0462C62.0911 21.0462 64.1224 18.9846 64.1224 16.0923C64.1224 13.2 62.0911 11.1385 59.4231 11.1385C56.6642 11.1385 54.6329 13.2 54.6329 16.0923Z" fill="white"/>
<path d="M76.4919 22.923H73.7027L68.0029 9.26147H70.5799L75.0973 20.5846L79.6147 9.26147H82.1007L76.4919 22.923Z" fill="white"/>
<path d="M96.6535 16V16.9231H86.0422C86.3151 19.7231 88.2554 21.1385 90.5596 21.1385C92.1058 21.1692 93.6217 20.5846 94.8041 19.5385L96.0168 21.1385C94.3493 22.7385 92.4999 23.2308 90.4686 23.2308C86.406 23.2308 83.5562 20.4308 83.5562 16.1231C83.5562 11.9077 86.406 8.92309 90.2867 8.92309C93.9855 8.89232 96.6535 11.8769 96.6535 16ZM86.0725 14.9539H94.3796C94.1068 12.6154 92.5302 11.0154 90.317 11.0154C87.9219 11.0462 86.4363 12.6154 86.0725 14.9539Z" fill="white"/>
<path d="M113.995 16.0923C113.995 20.1231 110.964 23.2 106.901 23.2C102.747 23.2 99.7156 20.1231 99.7156 16.0923C99.7156 11.9693 102.747 8.89233 106.901 8.89233C110.933 8.89233 113.995 11.9693 113.995 16.0923ZM102.111 16.0923C102.111 18.9846 104.142 21.0462 106.901 21.0462C109.569 21.0462 111.6 18.9846 111.6 16.0923C111.6 13.2 109.569 11.1385 106.901 11.1385C104.112 11.1385 102.111 13.2 102.111 16.0923Z" fill="white"/>
<path d="M26.7099 4.58462C24.1026 1.96923 20.707 0.369231 17.0386 0C16.7657 0 16.5535 0.246154 16.5535 0.553846C16.5535 0.676923 16.5838 0.769231 16.6747 0.861538L22.3745 6.55385C22.3745 6.64615 22.3745 6.64615 22.2835 6.64615C20.707 5.47692 18.8576 4.76923 16.9476 4.58462C16.7657 4.55385 16.6141 4.67692 16.5838 4.86154C16.5838 4.95385 16.6141 5.04615 16.6747 5.13846L20.5554 9.07692C20.5554 9.07692 20.5554 9.16923 20.4645 9.07692C19.4033 8.4 18.2209 7.96923 16.9476 7.84615C16.7657 7.84615 16.6747 8.03077 16.7657 8.21539L23.3143 14.8615C23.4963 15.0462 23.7691 14.8615 23.6782 14.6769C23.5872 13.4154 23.1628 12.1846 22.4654 11.1077C22.3745 11.1077 22.4654 11.0154 22.4654 11.1077L26.2552 14.8615C26.4371 15.0462 26.8009 14.8615 26.8009 14.5846C26.5887 12.6154 25.8914 10.7077 24.7696 9.07692C24.6786 9.07692 24.7696 8.98462 24.7696 9.07692L30.4997 14.7692C30.6513 14.9538 30.8938 14.9846 31.0757 14.8615C31.2273 14.7692 31.2879 14.5846 31.2273 14.4C30.8938 10.6769 29.287 7.2 26.7099 4.58462Z" fill="#00ADFF"/>
<path d="M4.51736 4.58462C7.15501 2 10.5506 0.369231 14.1888 0C14.4616 0 14.6738 0.184615 14.7042 0.461538C14.7042 0.584615 14.6738 0.738462 14.5526 0.830769L8.94377 6.55385C8.85281 6.64615 8.94377 6.64615 8.94377 6.64615C10.5506 5.47692 12.4303 4.76923 14.3707 4.58462C14.6435 4.58462 14.8254 4.95385 14.6435 5.13846L10.7932 9.07692C10.7022 9.07692 10.7932 9.16923 10.7932 9.07692C11.8543 8.4 13.0367 8 14.31 7.84615C14.4919 7.84615 14.6738 8.03077 14.4919 8.21539L7.91296 14.8615C7.73105 15.0462 7.54914 14.8615 7.54914 14.6769C7.67042 13.4154 8.12518 12.1846 8.85281 11.1077C8.85281 11.1077 8.76186 11.0154 8.76186 11.1077L5.06308 14.8615C4.79022 15.0462 4.42641 14.8615 4.51736 14.5846C4.69927 12.5846 5.39658 10.6769 6.54866 9.07692C6.54866 9.07692 6.4577 8.98462 6.4577 9.07692L0.818582 14.7692C0.454768 15.1385 0 14.8615 0 14.4C0.363814 10.7077 1.97066 7.26154 4.51736 4.58462Z" fill="#F05245"/>
<path d="M4.51736 27.3231C7.09438 29.9693 10.5203 31.6 14.1888 31.9077C14.4313 31.9385 14.6435 31.7847 14.6738 31.5385C14.7042 31.3847 14.6435 31.2616 14.5526 31.1385L8.94377 25.3539C8.85281 25.3539 8.94377 25.2616 8.94377 25.3539C10.5506 26.5231 12.4303 27.2308 14.3707 27.3847C14.6435 27.3847 14.8254 27.0154 14.6435 26.8308L10.7932 22.9231C10.7022 22.8308 10.7932 22.8308 10.7932 22.8308C11.824 23.5385 13.0367 24 14.2797 24.1231C14.4616 24.1231 14.6435 23.8462 14.4616 23.7539L7.91296 17.1077C7.73105 16.9231 7.54914 17.0154 7.54914 17.2923C7.67042 18.5539 8.12518 19.7847 8.85281 20.8616C8.85281 20.8616 8.76186 20.9539 8.76186 20.8616L5.06308 17.1077C4.79022 16.9231 4.42641 17.0154 4.51736 17.3847C4.69927 19.3539 5.39658 21.2308 6.54866 22.8C6.54866 22.8616 6.51834 22.8923 6.4577 22.8923L0.818582 17.1077C0.606357 16.9231 0.272861 16.9847 0.121271 17.2C0.0606357 17.2923 0.0303178 17.3847 0 17.5077C0.333496 21.2 1.94034 24.677 4.51736 27.3231Z" fill="#1CEBCF"/>
<path d="M26.71 27.3231C24.133 30 20.7071 31.6308 17.0386 31.9077C16.6748 32 16.402 31.4462 16.6748 31.1693L22.3746 25.3847C22.3746 25.3847 22.3746 25.2924 22.2836 25.3847C20.7071 26.5539 18.8577 27.2616 16.9477 27.4462C16.7658 27.477 16.6142 27.3231 16.5839 27.1385C16.5839 27.0462 16.6142 26.9539 16.6748 26.8616L20.5555 22.9231C20.5555 22.8308 20.5555 22.8308 20.4645 22.8308C19.4337 23.5693 18.221 24.0308 16.978 24.1231C16.8264 24.0924 16.7354 23.9693 16.7658 23.8462C16.7658 23.8154 16.7658 23.7847 16.7961 23.7539L23.3447 17.1077C23.5266 16.9231 23.7995 17.0154 23.7085 17.2924C23.6176 18.5539 23.1931 19.7847 22.4958 20.8616C22.4049 20.8616 22.4958 20.9539 22.4958 20.8616L26.2856 17.1077C26.4068 16.9847 26.6191 16.9847 26.7403 17.1077C26.801 17.1693 26.8313 17.2924 26.8313 17.3847C26.6191 19.3231 25.9218 21.2 24.8 22.8C24.709 22.8924 24.8 22.8924 24.8 22.8924L30.4997 17.1077C30.7726 16.8308 31.3183 17.1077 31.2274 17.477C30.9242 21.2 29.3174 24.677 26.71 27.3231Z" fill="#FFE300"/>
<path opacity="0.87" d="M119.483 13.2308V10.5847L118.573 12.4924H118.149L117.239 10.5847V13.2308H116.633V9.29236H117.239L118.361 11.7539L119.483 9.29236H120.089V13.2308H119.483Z" fill="white"/>
<path opacity="0.87" d="M123.576 12.8616C123.303 13.1077 122.939 13.2616 122.575 13.2308H121.211V9.29236H122.575C122.939 9.29236 123.303 9.41543 123.576 9.66159C124 10.0924 123.97 10.677 123.97 11.2308C123.97 11.7847 124 12.4308 123.576 12.8616ZM123.182 10.0924C123 9.90774 122.757 9.81543 122.515 9.81543H121.787V12.677H122.515C122.757 12.677 123 12.5847 123.182 12.4C123.394 12.1847 123.394 11.7539 123.394 11.2001C123.394 10.6462 123.394 10.3077 123.182 10.0924Z" fill="white"/>
</svg>
